<?xml version="1.0" encoding="utf-8"?>
<!-- Svg Vector Icons : http://www.onlinewebfonts.com/icon -->
<!DOCTYPE svg PUBLIC "-//W3C//DTD SVG 1.1//EN" "http://www.w3.org/Graphics/SVG/1.1/DTD/svg11.dtd">
<svg version="1.1" xmlns="http://www.w3.org/2000/svg" xmlns:xlink="http://www.w3.org/1999/xlink" x="0px" y="0px" viewBox="0 0 256 256" enable-background="new 0 0 256 256" xml:space="preserve">
<metadata> Svg Vector Icons : http://www.onlinewebfonts.com/icon </metadata>
<g><g><g><path fill="#000000" d="M12.4,10.6c-2.4,1.4-2.3-2-2.4,79.7v77.5l1.3,1.3l1.3,1.3h36.6h36.6v36.6v36.6l1.3,1.3l1.3,1.3h77.3h77.3l1.5-1.3l1.5-1.3l0.2-53.7c0.1-29.5,0-54.4-0.2-55.3c-0.2-0.9-0.6-2-1-2.6c-0.7-0.9-2.3-1-60-1.3l-59.2-0.3l-0.1-58c-0.1-31.9-0.2-58.6-0.4-59.4c-0.6-3.2,1.9-3-57.6-3C27.8,10,13.1,10.2,12.4,10.6z M117,74.6l0.1,55.5l-14.3,0.2l-14.3,0.2l-1.4,1.3l-1.4,1.3v14.3v14.3H52H18.4V90.5c0-39,0.2-71.1,0.4-71.3c0.2-0.2,22.4-0.3,49.2-0.3l48.9,0.2L117,74.6z M237.1,188.2l0.1,49h-71.3H94.6l-0.3-1.2c-0.2-0.9-0.2-31.3,0.2-85.1l0.1-11.4l13.7-0.2c7.5-0.1,39.5-0.1,71.1-0.1h57.5L237.1,188.2z"/><path fill="#000000" d="M157.9,33.1c-10,10-10.7,10.8-10.7,12.6c0,1.7,0.7,2.6,10.4,12.3c5.7,5.7,10.9,10.6,11.5,10.7c2.7,0.7,5.4-1.5,5.4-4.4c0-1.6-0.8-2.7-8.5-10.3l-8.5-8.6l8.5-8.5c7.4-7.5,8.5-8.7,8.5-10.2c0-2.2-2-4.2-4.3-4.2C168.8,22.5,167.4,23.7,157.9,33.1z"/><path fill="#000000" d="M167.6,42.3c-1.5,1.1-1.9,3.4-1.1,5.5c0.6,1.4,3.1,2.4,6.3,2.4c3.6,0,10.3,1.5,14,3.2c8.2,3.6,15.4,10.4,19.3,18.3c2.7,5.5,3.8,9.6,4.3,16.1c0.3,3.6,0.5,4.6,1.5,5.6c1.5,1.5,3.8,1.6,5.7,0.1l1.5-1.1l-0.3-5.5c-1.3-23.5-21.5-43.7-45.3-45.3C169.5,41.2,168.9,41.3,167.6,42.3z"/><path fill="#000000" d="M194.1,86.3c-1.7,0.9-2.4,2-2.4,4c0,1.7,0.8,2.7,10.6,12.4c9.6,9.7,10.8,10.6,12.4,10.6s2.7-0.9,12.5-10.7c10-9.9,10.7-10.8,10.7-12.6c0-2.5-1.7-4.1-4.1-4.1c-1.7,0-2.6,0.7-10.3,8.5l-8.5,8.5l-7.8-7.9c-6.8-6.8-10-9.4-11.6-9.3C195.4,85.7,194.7,86,194.1,86.3z"/></g></g></g>
</svg>